<svg width="1841" height="512" viewBox="0 0 1841 512" fill="none" xmlns="http://www.w3.org/2000/svg">
<g clip-path="url(#clip0_2_194)">
<rect width="1841" height="512" fill="black"/>
<path d="M128.5 205.069L160.11 250.379H96.8901L128.5 205.069Z" fill="#FF9200"/>
<rect x="97.0345" y="250.379" width="62.931" height="80.5517" fill="url(#paint0_linear_2_194)"/>
<path d="M1257.5 77.2812L1291.71 125.422H1223.29L1257.5 77.2812Z" fill="#FF9200"/>
<rect x="1222.94" y="125.422" width="69.125" height="75.2969" fill="url(#paint1_linear_2_194)"/>
<path d="M1522.72 343.6L1547.21 377.325H1498.23L1522.72 343.6Z" fill="#FF9200"/>
<rect x="1497.97" y="377.325" width="49.4929" height="52.7498" fill="url(#paint2_linear_2_194)"/>
<path d="M1482.25 322L1516.23 368.8H1448.26L1482.25 322Z" fill="#FF9200"/>
<rect x="1447.91" y="368.8" width="68.6805" height="73.2" fill="url(#paint3_linear_2_194)"/>
<path d="M754 46.5555L773.053 73.1389H734.947L754 46.5555Z" fill="#FF9200"/>
<rect x="735.667" y="72.2222" width="36.6667" height="78.2222" fill="url(#paint4_linear_2_194)"/>
<path fill-rule="evenodd" clip-rule="evenodd" d="M342.9 115.646L311.01 75.51L279.119 115.646L278.17 115.646V187H343.849V115.646L342.9 115.646Z" fill="url(#paint5_linear_2_194)"/>
<path fill-rule="evenodd" clip-rule="evenodd" d="M311.01 75.51L278.019 115.646H344L311.01 75.51ZM311.01 90L290.5 115.646H331.5L311.01 90Z" fill="#FF9200"/>
<path fill-rule="evenodd" clip-rule="evenodd" d="M1616.08 145.7L1587 109.5L1557.92 145.7H1557.14V214.5H1616.91V145.7H1616.08Z" fill="url(#paint6_linear_2_194)"/>
<path fill-rule="evenodd" clip-rule="evenodd" d="M1587 109.5L1557 145.75H1617L1587 109.5ZM1587 123.25L1567.62 145.75H1607L1587 123.25Z" fill="#FF9200"/>
<path fill-rule="evenodd" clip-rule="evenodd" d="M443 315.112L420.873 285.038L398.746 315.112H443ZM431.127 309.805L420.873 295.652L410.619 309.805H431.127Z" fill="#FF9200"/>
<rect x="399.062" y="314.522" width="43.6216" height="75.4781" fill="url(#paint7_linear_2_194)"/>
<path fill-rule="evenodd" clip-rule="evenodd" d="M1763 247.798L1741 218L1719 247.798H1763ZM1751.2 242.539L1741 228.517L1730.8 242.539H1751.2Z" fill="#FF9200"/>
<rect x="1719.31" y="247.214" width="43.3716" height="74.7865" fill="url(#paint8_linear_2_194)"/>
<path fill-rule="evenodd" clip-rule="evenodd" d="M225.063 391.112L225.672 390.237L226.282 391.112L243.303 415.54L244 416.54H242.781H238.944L243.303 422.796L244 423.796H242.781H239.787L243.303 428.843L244 429.843H242.781H238.944L243.303 436.098L244 437.098H242.781H239.787L243.303 442.145L244 443.145H242.781H238.944L243.303 449.401L244 450.401H242.781H239.787L243.303 455.447L244 456.447H242.781H238.944L243.303 462.703L244 463.703H242.781H239.787L243.303 468.75L244 469.75H242.781H208.563H207.345L208.041 468.75L211.558 463.703H208.563H207.345L208.041 462.703L212.4 456.447H208.563H207.345L208.041 455.447L211.558 450.401H208.563H207.345L208.041 449.401L212.4 443.145H208.563H207.345L208.041 442.145L211.558 437.098H208.563H207.345L208.041 436.098L212.4 429.843H208.563H207.345L208.041 428.843L211.558 423.796H208.563H207.345L208.041 422.796L212.4 416.54H208.563H207.345L208.041 415.54L225.063 391.112ZM212.777 463.703L209.26 468.75H242.084L238.568 463.703H212.777ZM237.871 462.703H213.473L217.833 456.447H233.512L237.871 462.703ZM239.09 462.703H242.084L237.725 456.447H234.731L239.09 462.703ZM234.034 455.447H237.028L233.512 450.401H230.518L234.034 455.447ZM229.821 449.401H232.815L228.456 443.145H222.888L218.529 449.401H221.524L225.063 444.322L225.672 443.447L226.282 444.322L229.821 449.401ZM222.743 449.401L225.672 445.197L228.602 449.401H222.743ZM222.046 450.401H229.299L232.815 455.447H218.529L222.046 450.401ZM220.827 450.401H217.833L214.316 455.447H217.311L220.827 450.401ZM216.614 456.447H213.619L209.26 462.703H212.255L216.614 456.447ZM242.084 455.447H238.247L234.731 450.401H238.568L242.084 455.447ZM237.871 449.401H234.034L229.675 443.145H233.512L237.871 449.401ZM232.815 442.145H228.978L226.282 438.275L225.672 437.401L225.063 438.275L222.366 442.145H218.529L222.046 437.098H229.299L232.815 442.145ZM225.672 439.15L223.585 442.145H227.759L225.672 439.15ZM217.833 443.145H221.67L217.311 449.401H213.473L217.833 443.145ZM212.777 450.401H216.614L213.097 455.447H209.26L212.777 450.401ZM212.255 449.401L216.614 443.145H213.619L209.26 449.401H212.255ZM217.311 442.145L220.827 437.098H217.833L214.316 442.145H217.311ZM221.524 436.098L225.063 431.019L225.672 430.145L226.282 431.019L229.821 436.098H232.815L228.456 429.843H222.889L218.529 436.098H221.524ZM230.518 437.098L234.034 442.145H237.028L233.512 437.098H230.518ZM234.731 443.145L239.09 449.401H242.084L237.725 443.145H234.731ZM228.602 436.098L225.672 431.894L222.743 436.098H228.602ZM238.247 442.145H242.084L238.568 437.098H234.731L238.247 442.145ZM234.034 436.098H237.871L233.512 429.843H229.675L234.034 436.098ZM228.978 428.843H232.815L229.299 423.796H222.046L218.529 428.843H222.366L225.063 424.973L225.672 424.098L226.282 424.973L228.978 428.843ZM223.585 428.843L225.672 425.848L227.759 428.843H223.585ZM221.67 429.843H217.833L213.473 436.098H217.311L221.67 429.843ZM216.614 437.098H212.777L209.26 442.145H213.097L216.614 437.098ZM242.084 436.098H239.09L234.731 429.843H237.725L242.084 436.098ZM237.028 428.843H234.034L230.518 423.796H233.512L237.028 428.843ZM232.815 422.796H229.821L226.282 417.717L225.672 416.842L225.063 417.717L221.524 422.796H218.529L222.889 416.54H228.456L232.815 422.796ZM217.833 423.796H220.827L217.311 428.843H214.316L217.833 423.796ZM213.619 429.843H216.614L212.255 436.098H209.26L213.619 429.843ZM225.672 418.592L228.602 422.796H222.743L225.672 418.592ZM242.084 428.843H238.247L234.731 423.796H238.568L242.084 428.843ZM237.871 422.796H234.034L229.675 416.54H233.512L237.871 422.796ZM232.815 415.54H228.978L226.282 411.67L225.672 410.796L225.063 411.67L222.366 415.54H218.529L225.672 405.289L232.815 415.54ZM225.672 412.545L223.585 415.54H227.759L225.672 412.545ZM217.833 416.54H221.67L217.311 422.796H213.473L217.833 416.54ZM212.777 423.796H216.614L213.097 428.843H209.26L212.777 423.796ZM212.255 422.796L216.614 416.54H213.619L209.26 422.796H212.255ZM217.311 415.54L225.063 404.415L225.672 403.54L226.282 404.415L234.034 415.54H237.028L225.672 399.243L214.316 415.54H217.311ZM234.731 416.54L239.09 422.796H242.084L237.725 416.54H234.731ZM238.247 415.54L226.282 398.368L225.672 397.493L225.063 398.368L213.097 415.54H209.26L225.672 391.987L242.084 415.54H238.247Z" fill="url(#paint9_linear_2_194)"/>
<path fill-rule="evenodd" clip-rule="evenodd" d="M1021.54 440.852L1022.16 440L1022.77 440.852L1039.59 464.058L1040.31 465.058H1039.08H1035.3L1039.59 470.971L1040.31 471.971H1039.08H1036.14L1039.59 476.731L1040.31 477.731H1039.08H1035.3L1039.59 483.643L1040.31 484.643H1039.08H1036.14L1039.59 489.404L1040.31 490.404H1039.08H1035.3L1039.59 496.317L1040.31 497.317H1039.08H1036.14L1039.59 502.077L1040.31 503.077H1039.08H1035.3L1039.59 508.99L1040.31 509.99H1039.08H1036.14L1039.59 514.75L1040.31 515.75H1039.08H1005.23H1004L1004.72 514.75L1008.17 509.99H1005.23H1004L1004.72 508.99L1009.01 503.077H1005.23H1004L1004.72 502.077L1008.17 497.317H1005.23H1004L1004.72 496.317L1009.01 490.404H1005.23H1004L1004.72 489.404L1008.17 484.643H1005.23H1004L1004.72 483.643L1009.01 477.731H1005.23H1004L1004.72 476.731L1008.17 471.971H1005.23H1004L1004.72 470.971L1009.01 465.058H1005.23H1004L1004.72 464.058L1021.54 440.852ZM1009.41 509.99L1005.96 514.75H1038.35L1034.9 509.99H1009.41ZM1034.18 508.99H1010.13L1014.42 503.077H1029.89L1034.18 508.99ZM1035.41 508.99H1038.35L1034.07 503.077H1031.13L1035.41 508.99ZM1030.4 502.077H1033.34L1029.89 497.317H1026.96L1030.4 502.077ZM1026.23 496.317H1029.17L1024.89 490.404H1019.43L1015.14 496.317H1018.08L1021.54 491.544L1022.16 490.692L1022.77 491.544L1026.23 496.317ZM1019.32 496.317L1022.16 492.396L1025 496.317H1019.32ZM1018.59 497.317H1025.72L1029.17 502.077H1015.14L1018.59 497.317ZM1017.36 497.317H1014.42L1010.97 502.077H1013.91L1017.36 497.317ZM1013.18 503.077H1010.24L1005.96 508.99H1008.9L1013.18 503.077ZM1038.35 502.077H1034.58L1031.13 497.317H1034.9L1038.35 502.077ZM1034.18 496.317H1030.4L1026.12 490.404H1029.89L1034.18 496.317ZM1029.17 489.404H1025.4L1022.77 485.784L1022.16 484.932L1021.54 485.784L1018.91 489.404H1015.14L1018.59 484.643H1025.72L1029.17 489.404ZM1022.16 486.636L1020.15 489.404H1024.16L1022.16 486.636ZM1014.42 490.404H1018.19L1013.91 496.317H1010.13L1014.42 490.404ZM1009.41 497.317H1013.18L1009.73 502.077H1005.96L1009.41 497.317ZM1008.9 496.317L1013.18 490.404H1010.24L1005.96 496.317H1008.9ZM1013.91 489.404L1017.36 484.643H1014.42L1010.97 489.404H1013.91ZM1018.08 483.643L1021.54 478.871L1022.16 478.019L1022.77 478.871L1026.23 483.643H1029.17L1024.89 477.731H1019.43L1015.14 483.643H1018.08ZM1026.96 484.643L1030.4 489.404H1033.34L1029.89 484.643H1026.96ZM1031.13 490.404L1035.41 496.317H1038.35L1034.07 490.404H1031.13ZM1025 483.643L1022.16 479.723L1019.32 483.643H1025ZM1034.58 489.404H1038.35L1034.9 484.643H1031.13L1034.58 489.404ZM1030.4 483.643H1034.18L1029.89 477.731H1026.12L1030.4 483.643ZM1025.4 476.731H1029.17L1025.72 471.971H1018.59L1015.14 476.731H1018.92L1021.54 473.111L1022.16 472.259L1022.77 473.111L1025.4 476.731ZM1020.15 476.731L1022.16 473.963L1024.16 476.731H1020.15ZM1018.19 477.731H1014.42L1010.13 483.643H1013.91L1018.19 477.731ZM1013.18 484.643H1009.41L1005.96 489.404H1009.73L1013.18 484.643ZM1038.35 483.643H1035.41L1031.13 477.731H1034.07L1038.35 483.643ZM1033.34 476.731H1030.4L1026.96 471.971H1029.89L1033.34 476.731ZM1029.17 470.971H1026.23L1022.77 466.198L1022.16 465.346L1021.54 466.198L1018.08 470.971H1015.14L1019.43 465.058H1024.89L1029.17 470.971ZM1014.42 471.971H1017.36L1013.91 476.731H1010.97L1014.42 471.971ZM1010.24 477.731H1013.18L1008.9 483.643H1005.96L1010.24 477.731ZM1022.16 467.05L1025 470.971H1019.32L1022.16 467.05ZM1038.35 476.731H1034.58L1031.13 471.971H1034.9L1038.35 476.731ZM1034.18 470.971H1030.4L1026.12 465.058H1029.89L1034.18 470.971ZM1029.17 464.058H1025.4L1022.77 460.438L1022.16 459.586L1021.54 460.438L1018.91 464.058H1015.14L1022.16 454.377L1029.17 464.058ZM1022.16 461.29L1020.15 464.058H1024.16L1022.16 461.29ZM1014.42 465.058H1018.19L1013.91 470.971H1010.13L1014.42 465.058ZM1009.41 471.971H1013.18L1009.73 476.731H1005.96L1009.41 471.971ZM1008.9 470.971L1013.18 465.058H1010.24L1005.96 470.971H1008.9ZM1013.91 464.058L1021.54 453.525L1022.16 452.673L1022.77 453.525L1030.4 464.058H1033.34L1022.16 448.617L1010.97 464.058H1013.91ZM1031.13 465.058L1035.41 470.971H1038.35L1034.07 465.058H1031.13ZM1034.58 464.058L1022.77 447.765L1022.16 446.913L1021.54 447.765L1009.73 464.058H1005.96L1022.16 441.704L1038.35 464.058H1034.58Z" fill="url(#paint10_linear_2_194)"/>
<path fill-rule="evenodd" clip-rule="evenodd" d="M1441.38 56.3123L1442 55.4581L1442.62 56.3123L1465.28 87.7011L1466 88.7011H1464.77H1459.38L1465.28 96.8716L1466 97.8716H1464.77H1460.48L1465.28 104.514L1466 105.514H1464.77H1459.38L1465.28 113.684L1466 114.684H1464.77H1460.48L1465.28 121.326L1466 122.326H1464.77H1459.38L1465.28 130.497L1466 131.497H1464.77H1460.48L1465.28 138.139L1466 139.139H1464.77H1459.38L1465.28 147.309L1466 148.309H1464.77H1460.48L1465.28 154.951L1466 155.951H1465.6L1466 156.508H1464.77H1459.38L1465.28 164.679L1466 165.679H1464.77H1419.23H1418L1418.72 164.679L1424.62 156.508H1419.23H1418L1418.4 155.951H1418L1418.72 154.951L1423.52 148.309H1419.23H1418L1418.72 147.309L1424.62 139.139H1419.23H1418L1418.72 138.139L1423.52 131.497H1419.23H1418L1418.72 130.497L1424.62 122.326H1419.23H1418L1418.72 121.326L1423.52 114.684H1419.23H1418L1418.72 113.684L1424.62 105.514H1419.23H1418L1418.72 104.514L1423.52 97.8716H1419.23H1418L1418.72 96.8716L1424.62 88.7011H1419.23H1418L1418.72 87.7011L1441.38 56.3123ZM1425.85 156.508L1419.96 164.679H1464.04L1458.15 156.508H1425.85ZM1457.02 154.951H1426.98L1431.77 148.309H1452.23L1457.02 154.951ZM1458.26 154.951H1463.64L1458.85 148.309H1453.46L1458.26 154.951ZM1452.74 147.309H1458.13L1452.23 139.139H1446.84L1452.74 147.309ZM1446.12 138.139H1451.5L1446.71 131.497H1437.29L1432.5 138.139H1437.88L1441.38 133.29L1442 132.436L1442.62 133.29L1446.12 138.139ZM1439.12 138.139L1442 134.144L1444.88 138.139H1439.12ZM1438.39 139.139H1445.61L1451.5 147.309H1432.5L1438.39 139.139ZM1437.16 139.139H1431.77L1425.87 147.309H1431.26L1437.16 139.139ZM1430.54 148.309H1425.15L1420.36 154.951H1425.74L1430.54 148.309ZM1442 124.973L1438.01 130.497H1445.99L1442 124.973ZM1459.76 147.309H1464.04L1458.15 139.139H1453.86L1459.76 147.309ZM1453.14 138.139H1457.42L1452.63 131.497H1448.34L1453.14 138.139ZM1447.62 130.497H1451.91L1446.01 122.326H1437.99L1432.09 130.497H1436.38L1441.38 123.563L1442 122.708L1442.62 123.563L1447.62 130.497ZM1435.66 131.497H1431.37L1426.58 138.139H1430.86L1435.66 131.497ZM1430.14 139.139H1425.85L1419.96 147.309H1424.24L1430.14 139.139ZM1464.04 138.139H1458.66L1453.86 131.497H1459.25L1464.04 138.139ZM1458.53 130.497H1453.14L1447.24 122.326H1452.63L1458.53 130.497ZM1451.91 121.326H1446.52L1442.62 115.92L1442 115.066L1441.38 115.92L1437.48 121.326H1432.09L1436.89 114.684H1447.11L1451.91 121.326ZM1442 116.775L1438.71 121.326H1445.29L1442 116.775ZM1431.37 122.326H1436.76L1430.86 130.497H1425.47L1431.37 122.326ZM1424.75 131.497H1430.14L1425.34 138.139H1419.96L1424.75 131.497ZM1424.24 130.497L1430.14 122.326H1425.85L1419.96 130.497H1424.24ZM1430.86 121.326L1435.66 114.684H1431.37L1426.58 121.326H1430.86ZM1436.38 113.684L1441.38 106.75L1442 105.896L1442.62 106.75L1447.62 113.684H1451.91L1446.01 105.514H1437.99L1432.09 113.684H1436.38ZM1448.34 114.684L1453.14 121.326H1457.42L1452.63 114.684H1448.34ZM1453.86 122.326L1459.76 130.497H1464.04L1458.15 122.326H1453.86ZM1446.39 113.684L1442 107.604L1437.61 113.684H1446.39ZM1458.66 121.326H1464.04L1459.25 114.684H1453.86L1458.66 121.326ZM1453.14 113.684H1458.53L1452.63 105.514H1447.24L1453.14 113.684ZM1446.52 104.514H1451.91L1447.11 97.8716H1436.89L1432.09 104.514H1437.48L1441.38 99.1079L1442 98.2537L1442.62 99.1079L1446.52 104.514ZM1438.71 104.514L1442 99.9621L1445.29 104.514H1438.71ZM1436.76 105.514H1431.37L1425.47 113.684H1430.86L1436.76 105.514ZM1430.14 114.684H1424.75L1419.96 121.326H1425.34L1430.14 114.684ZM1464.04 113.684H1459.76L1453.86 105.514H1458.15L1464.04 113.684ZM1457.42 104.514H1453.14L1448.34 97.8716H1452.63L1457.42 104.514ZM1451.91 96.8716H1447.62L1442.62 89.9374L1442 89.0832L1441.38 89.9374L1436.38 96.8716H1432.09L1437.99 88.7011H1446.01L1451.91 96.8716ZM1431.37 97.8716H1435.66L1430.86 104.514H1426.58L1431.37 97.8716ZM1425.85 105.514H1430.14L1424.24 113.684H1419.96L1425.85 105.514ZM1442 90.7916L1446.39 96.8716H1437.61L1442 90.7916ZM1464.04 104.514H1458.66L1453.86 97.8716H1459.25L1464.04 104.514ZM1458.53 96.8716H1453.14L1447.24 88.7011H1452.63L1458.53 96.8716ZM1451.91 87.7011H1446.52L1442.62 82.2954L1442 81.4412L1441.38 82.2954L1437.48 87.7011H1432.09L1442 73.979L1451.91 87.7011ZM1442 83.1495L1438.71 87.7011H1445.29L1442 83.1495ZM1431.37 88.7011H1436.76L1430.86 96.8716H1425.47L1431.37 88.7011ZM1424.75 97.8716H1430.14L1425.34 104.514H1419.96L1424.75 97.8716ZM1424.24 96.8716L1430.14 88.7011H1425.85L1419.96 96.8716H1424.24ZM1430.86 87.7011L1441.38 73.1248L1442 72.2706L1442.62 73.1248L1453.14 87.7011H1457.42L1442 66.3369L1426.58 87.7011H1430.86ZM1453.86 88.7011L1459.76 96.8716H1464.04L1458.15 88.7011H1453.86ZM1458.66 87.7011L1442.62 65.4827L1442 64.6286L1441.38 65.4827L1425.34 87.7011H1419.96L1442 57.1665L1464.04 87.7011H1458.66Z" fill="url(#paint11_linear_2_194)"/>
<path d="M393.5 138.969L409.521 161.516H377.479L393.5 138.969Z" fill="#FF9200"/>
<path d="M1688.62 473.122L1717.53 512.031H1659.7L1688.62 473.122Z" fill="#FF9200"/>
<path fill-rule="evenodd" clip-rule="evenodd" d="M716 415.191L694.5 384.309L673 415.191H716ZM704.463 409.741L694.5 395.209L684.537 409.741H704.463Z" fill="#FF9200"/>
<path fill-rule="evenodd" clip-rule="evenodd" d="M605 540L520.829 436.68L436.658 540H605ZM580.079 528.756L521.129 458.559L462.178 528.756H580.079Z" fill="#FF9200"/>
<path d="M521.5 474L551.378 512.25H491.622L521.5 474Z" fill="#FF9200"/>
<path fill-rule="evenodd" clip-rule="evenodd" d="M1329 521L1288 462.429L1247 521H1329ZM1299.16 516.607L1288 499.914L1276.84 516.607H1299.16Z" fill="#FF9200"/>
</g>
<defs>
<linearGradient id="paint0_linear_2_194" x1="128.5" y1="250.379" x2="128.5" y2="330.931" gradientUnits="userSpaceOnUse">
<stop stop-color="#FF9200"/>
<stop offset="1" stop-color="#FF9200" stop-opacity="0"/>
</linearGradient>
<linearGradient id="paint1_linear_2_194" x1="1257.5" y1="125.422" x2="1257.5" y2="200.719" gradientUnits="userSpaceOnUse">
<stop stop-color="#FF9200"/>
<stop offset="1" stop-color="#FF9200" stop-opacity="0"/>
</linearGradient>
<linearGradient id="paint2_linear_2_194" x1="1522.72" y1="377.325" x2="1522.72" y2="430.075" gradientUnits="userSpaceOnUse">
<stop stop-color="#FF9200"/>
<stop offset="1" stop-color="#FF9200" stop-opacity="0"/>
</linearGradient>
<linearGradient id="paint3_linear_2_194" x1="1482.25" y1="368.8" x2="1482.25" y2="442" gradientUnits="userSpaceOnUse">
<stop stop-color="#FF9200"/>
<stop offset="1" stop-color="#FF9200" stop-opacity="0"/>
</linearGradient>
<linearGradient id="paint4_linear_2_194" x1="754" y1="72.2222" x2="754" y2="150.444" gradientUnits="userSpaceOnUse">
<stop stop-color="#FF9200"/>
<stop offset="1" stop-color="#FF9200" stop-opacity="0"/>
</linearGradient>
<linearGradient id="paint5_linear_2_194" x1="311.01" y1="115.646" x2="311.01" y2="187" gradientUnits="userSpaceOnUse">
<stop stop-color="#FF9200" stop-opacity="0.84"/>
<stop offset="0.0001" stop-color="#FF9200"/>
<stop offset="1" stop-color="#FF9200" stop-opacity="0"/>
</linearGradient>
<linearGradient id="paint6_linear_2_194" x1="1587.03" y1="145.7" x2="1587.03" y2="214.5" gradientUnits="userSpaceOnUse">
<stop stop-color="#FF9200" stop-opacity="0.84"/>
<stop offset="0.0001" stop-color="#FF9200"/>
<stop offset="1" stop-color="#FF9200" stop-opacity="0"/>
</linearGradient>
<linearGradient id="paint7_linear_2_194" x1="420.873" y1="314.522" x2="420.873" y2="390" gradientUnits="userSpaceOnUse">
<stop stop-color="#FF9200"/>
<stop offset="1" stop-color="#FF9200" stop-opacity="0"/>
</linearGradient>
<linearGradient id="paint8_linear_2_194" x1="1741" y1="247.214" x2="1741" y2="322" gradientUnits="userSpaceOnUse">
<stop stop-color="#FF9200"/>
<stop offset="1" stop-color="#FF9200" stop-opacity="0"/>
</linearGradient>
<linearGradient id="paint9_linear_2_194" x1="225.672" y1="390.237" x2="228.091" y2="475.494" gradientUnits="userSpaceOnUse">
<stop stop-color="#FF9200"/>
<stop offset="0.354167" stop-color="#FF9200"/>
<stop offset="1" stop-color="#FF9200" stop-opacity="0"/>
</linearGradient>
<linearGradient id="paint10_linear_2_194" x1="1022.16" y1="440" x2="1024.37" y2="521.227" gradientUnits="userSpaceOnUse">
<stop stop-color="#FF9200"/>
<stop offset="0.354167" stop-color="#FF9200"/>
<stop offset="1" stop-color="#FF9200" stop-opacity="0"/>
</linearGradient>
<linearGradient id="paint11_linear_2_194" x1="1442" y1="55.4581" x2="1441.73" y2="175.8" gradientUnits="userSpaceOnUse">
<stop stop-color="#FF9200"/>
<stop offset="0.354167" stop-color="#FF9200"/>
<stop offset="1" stop-color="#FF9200" stop-opacity="0"/>
</linearGradient>
<clipPath id="clip0_2_194">
<rect width="1841" height="512" fill="white"/>
</clipPath>
</defs>
</svg>
