<svg width="94" height="33" viewBox="0 0 94 33" fill="none" xmlns="http://www.w3.org/2000/svg">
<path d="M32.3901 14.4403L31.5033 12.9564L26.6481 4.80605H26.626L26.4708 4.51813H24.6972L17.8024 16.6329L24.808 28.6812H26.5816L26.626 28.6148L32.4123 18.7148H28.8429L25.7613 24.1852L21.3717 16.6107L25.6727 9.03625L28.7986 14.4181L32.3901 14.4403Z" fill="#41E6AF"/>
<path d="M5.40946 12.4691L8.64626 6.95436L7.55994 5.2047L6.80616 3.96443L1.26371 13.7315L1.10852 13.9973L1.99531 15.5477H15.9401L22.968 3.52148L21.9925 1.83826L12.2378 1.8604H12.0826L10.5307 1.83826L11.351 3.38859L12.1713 4.93893L18.5562 4.91678L14.1665 12.4691H5.40946Z" fill="#41E6AF"/>
<path d="M12.3043 6.09061C12.0604 6.09061 11.7944 6.1349 11.5283 6.22349C11.2401 6.31208 10.9519 6.44497 10.6859 6.6C9.93209 7.0651 9.40002 7.72953 9.31134 8.34967C9.267 8.63759 9.33351 8.88121 9.48869 9.05839C9.51086 9.10269 9.5552 9.12484 9.57737 9.16913C9.59954 9.19128 9.62171 9.19128 9.64388 9.21343C9.66605 9.23557 9.66605 9.23557 9.68822 9.25772C9.73256 9.27987 9.75473 9.30202 9.79907 9.32416C10.2646 9.54564 10.9962 9.50135 11.7057 9.16913L11.7278 9.14698C11.7944 9.12484 11.8609 9.08054 11.9274 9.05839C11.9939 9.03625 12.0382 8.99195 12.1047 8.94765C12.1712 8.90336 12.2378 8.85906 12.3043 8.81477C12.3708 8.77047 12.4151 8.72618 12.4816 8.68188L12.526 8.65973C12.5703 8.61544 12.6146 8.59329 12.659 8.549C12.6811 8.52685 12.6811 8.52685 12.7033 8.5047C12.7477 8.48255 12.7698 8.43826 12.792 8.41611C12.8142 8.39396 12.8363 8.37181 12.8585 8.32752C12.8807 8.28322 12.925 8.26108 12.9472 8.21678C12.9694 8.19463 12.9694 8.19463 12.9915 8.17249C13.0137 8.12819 13.058 8.10604 13.0802 8.06175L13.1245 8.01745C13.1467 7.97316 13.1689 7.95101 13.1911 7.90671C13.1911 7.90671 13.1911 7.90671 13.1911 7.88457L13.2132 7.84027C13.2576 7.79598 13.2797 7.72953 13.3019 7.68524C13.3241 7.64094 13.3462 7.5745 13.3684 7.5302L13.3906 7.50806C13.3906 7.48591 13.4128 7.46376 13.4128 7.46376C13.4128 7.44161 13.4128 7.44161 13.4349 7.41947C13.4349 7.37517 13.4571 7.35302 13.4571 7.30873C13.4571 7.26443 13.4793 7.26443 13.4793 7.24228C13.4793 7.22014 13.4793 7.19799 13.4793 7.19799C13.4793 7.15369 13.4793 7.13155 13.4793 7.1094V7.0651C13.4793 7.02081 13.4793 6.99866 13.4793 6.95437C13.4793 6.93222 13.4793 6.93222 13.4793 6.91007C13.4793 6.88792 13.4793 6.86577 13.4793 6.86577C13.4793 6.84363 13.4793 6.84363 13.4793 6.82148V6.79933C13.4793 6.75504 13.4571 6.73289 13.4349 6.68859C13.4128 6.6443 13.3906 6.62215 13.3684 6.57786C13.2132 6.24564 12.792 6.09061 12.3043 6.09061Z" fill="#41E6AF"/>
<path d="M13.9227 7.7074C13.9227 7.75169 13.9005 7.77384 13.8783 7.81814C13.8783 7.84029 13.8783 7.84029 13.8562 7.86243C13.834 7.92888 13.8118 7.97317 13.7675 8.03961C13.5236 8.50471 13.1246 8.94767 12.6368 9.30203C12.5703 9.34633 12.5038 9.39062 12.4373 9.43492C12.3708 9.47921 12.3043 9.52351 12.2378 9.54565H12.2156C12.1934 9.5678 12.1713 9.5678 12.1491 9.58995C12.1047 9.6121 12.0826 9.63424 12.0382 9.65639H12.0161C11.9939 9.65639 11.9717 9.67854 11.9496 9.67854C11.9052 9.70069 11.8609 9.72284 11.8165 9.72284L11.7722 9.74498C11.7722 9.74498 11.7722 9.74498 11.75 9.74498C11.7279 9.74498 11.7057 9.76713 11.6835 9.76713C11.6392 9.78928 11.5948 9.78928 11.5505 9.81143L11.5062 9.83357H11.484C11.4396 9.85572 11.3953 9.85572 11.351 9.87787C11.3288 9.87787 11.3066 9.90002 11.2623 9.90002H11.2401C11.1958 9.90002 11.1514 9.92216 11.1293 9.92216C11.1071 9.92216 11.0628 9.92216 11.0406 9.94431H11.0184C10.9963 9.94431 10.9741 9.94431 10.9519 9.96646C10.9297 9.96646 10.9076 9.96646 10.8854 9.96646C10.8189 9.96646 10.7302 9.98861 10.6637 9.98861H10.6415C10.575 9.98861 10.5085 9.98861 10.442 9.98861C10.4198 9.98861 10.3977 9.98861 10.3977 9.98861H10.3755C10.3312 9.98861 10.2868 9.98861 10.2425 9.96646C10.2203 9.96646 10.1981 9.96646 10.176 9.94431C10.1316 9.94431 10.0873 9.92216 10.0429 9.92216C10.0208 9.92216 9.99861 9.90002 9.97644 9.90002L11.1958 11.8712L13.8118 11.849L15.1642 9.45706L13.9448 7.46378C13.9448 7.48592 13.9448 7.50807 13.9227 7.53022C13.9227 7.55237 13.9227 7.55237 13.9227 7.57451C13.9227 7.59666 13.9005 7.61881 13.9005 7.6631C13.9227 7.68525 13.9227 7.7074 13.9227 7.7074Z" fill="#41E6AF"/>
<path d="M27.8231 14.9054C27.9562 15.1047 28.0448 15.3483 28.1113 15.6362C28.1779 15.9242 28.2222 16.2342 28.2222 16.5443C28.2222 17.4302 27.934 18.2275 27.4463 18.6262C27.2246 18.8034 26.9807 18.8919 26.7368 18.8477C26.6925 18.8477 26.6481 18.8255 26.6038 18.8255C26.5816 18.8255 26.5595 18.8034 26.5373 18.8034C26.5151 18.8034 26.493 18.7812 26.4708 18.7812C26.4264 18.7591 26.3821 18.7369 26.3599 18.7148C25.9165 18.4268 25.584 17.7846 25.4953 17.0094V16.9872C25.4953 16.9208 25.4731 16.8544 25.4731 16.7658C25.4731 16.6993 25.4731 16.6329 25.4731 16.5664C25.4731 16.4779 25.4731 16.4114 25.4731 16.3228C25.4731 16.2564 25.4731 16.1899 25.4953 16.1235V16.0792C25.4953 16.0349 25.5175 15.9685 25.5175 15.9242C25.5175 15.902 25.5175 15.8799 25.5175 15.8577C25.5175 15.8134 25.5397 15.7691 25.5397 15.7248C25.5397 15.6805 25.5618 15.6584 25.5618 15.6141C25.584 15.5698 25.584 15.5255 25.6062 15.4812C25.6062 15.4591 25.6283 15.4369 25.6283 15.4148C25.6505 15.3705 25.6505 15.3262 25.6727 15.2819L25.6948 15.2154C25.717 15.1711 25.7392 15.149 25.7392 15.1047C25.7392 15.1047 25.7392 15.1047 25.7392 15.0825L25.7614 15.0383C25.7835 14.9718 25.8279 14.9275 25.85 14.8832C25.8722 14.8389 25.9165 14.7946 25.9387 14.7503L25.9609 14.7282C25.983 14.706 25.983 14.706 26.0052 14.6839C26.0274 14.6617 26.0274 14.6617 26.0274 14.6396C26.0496 14.6174 26.0717 14.5953 26.0939 14.5732C26.1161 14.551 26.1382 14.5289 26.1382 14.5289C26.1604 14.5067 26.1604 14.5067 26.1826 14.4846C26.2047 14.4624 26.2269 14.4403 26.2491 14.4181L26.2934 14.396C26.3156 14.3738 26.3599 14.3517 26.3821 14.3295C26.4043 14.3295 26.4043 14.3295 26.4264 14.3074C26.4486 14.3074 26.4708 14.2852 26.4708 14.2852C26.4708 14.2852 26.493 14.2852 26.493 14.2631H26.5151C26.5595 14.2631 26.5816 14.2409 26.626 14.2409C26.6703 14.2409 26.7147 14.2409 26.759 14.2409C27.2246 14.2188 27.5571 14.4846 27.8231 14.9054Z" fill="#41E6AF"/>
<path d="M25.584 14.3738C25.5618 14.396 25.5397 14.4403 25.5175 14.4624C25.5175 14.4846 25.4953 14.4846 25.4953 14.5067C25.451 14.551 25.4288 14.6175 25.3845 14.6618C25.0963 15.1047 24.9411 15.6806 24.8967 16.2785C24.8967 16.3671 24.8967 16.4336 24.8967 16.5222C24.8967 16.5886 24.8967 16.6772 24.8967 16.7436V16.7658C24.8967 16.7879 24.8967 16.8322 24.8967 16.8544C24.8967 16.8987 24.8967 16.943 24.9189 16.9873V17.0094C24.9189 17.0316 24.9189 17.0537 24.9189 17.0759C24.9189 17.1202 24.9411 17.1644 24.9411 17.2087V17.253C24.9411 17.253 24.9411 17.253 24.9411 17.2752C24.9411 17.2973 24.9411 17.3195 24.9633 17.3416C24.9633 17.3859 24.9854 17.4302 24.9854 17.4745L25.0076 17.5188V17.541C25.0076 17.5853 25.0298 17.6295 25.0519 17.6738C25.0519 17.696 25.0741 17.7181 25.0741 17.7403V17.7624C25.0963 17.8067 25.0963 17.8289 25.1184 17.8732C25.1184 17.8953 25.1406 17.9175 25.1628 17.9618V17.9839C25.1628 18.0061 25.185 18.0282 25.185 18.0504C25.2071 18.0725 25.2071 18.0946 25.2071 18.0946C25.2293 18.1611 25.2736 18.2275 25.318 18.294L25.3401 18.3161C25.3845 18.3826 25.4067 18.4269 25.451 18.4712C25.451 18.4933 25.4732 18.4933 25.4732 18.5155L25.4953 18.5376C25.5175 18.5819 25.5618 18.604 25.584 18.6483C25.6062 18.6705 25.6062 18.6926 25.6284 18.6926C25.6727 18.7369 25.6949 18.7591 25.717 18.8034C25.7392 18.8255 25.7614 18.8255 25.7614 18.8477H23.4335L22.0812 16.6108L23.4114 14.2188H25.7392C25.717 14.241 25.717 14.241 25.6949 14.2631L25.6727 14.2853C25.6505 14.3074 25.6284 14.3296 25.584 14.3738C25.6062 14.3738 25.584 14.3738 25.584 14.3738Z" fill="#41E6AF"/>
<path d="M12.3043 27.1087C12.0604 27.1087 11.7944 27.0644 11.5283 26.9758C11.2401 26.8872 10.9519 26.7544 10.6859 26.5993C9.93209 26.1342 9.40002 25.4698 9.31134 24.8497C9.267 24.5617 9.33351 24.3181 9.48869 24.1409C9.51086 24.0966 9.5552 24.0745 9.57737 24.0302C9.59954 24.0081 9.62171 24.0081 9.64388 23.9859C9.66605 23.9638 9.66605 23.9638 9.68822 23.9416C9.73256 23.9195 9.75473 23.8973 9.79907 23.8752C10.2646 23.6537 10.9962 23.698 11.7057 24.0302L11.7278 24.0524C11.7944 24.0745 11.8609 24.1188 11.9274 24.1409C11.9939 24.1631 12.0382 24.2074 12.1047 24.2517C12.1712 24.296 12.2378 24.3403 12.3043 24.3846C12.3708 24.4289 12.4151 24.4732 12.4816 24.5175L12.526 24.5396C12.5703 24.5839 12.6146 24.606 12.659 24.6503C12.6811 24.6725 12.6811 24.6725 12.7033 24.6946C12.7477 24.7168 12.7698 24.7611 12.792 24.7832C12.8142 24.8054 12.8363 24.8275 12.8585 24.8718C12.8807 24.9161 12.925 24.9383 12.9472 24.9826C12.9694 25.0047 12.9694 25.0047 12.9915 25.0268C13.0137 25.0711 13.058 25.0933 13.0802 25.1376L13.1245 25.1819C13.1467 25.2262 13.1689 25.2483 13.1911 25.2926V25.3148L13.2132 25.3591C13.2576 25.4034 13.2797 25.4698 13.3019 25.5141C13.3241 25.5584 13.3462 25.6248 13.3684 25.6691L13.3906 25.6913C13.3906 25.7134 13.4128 25.7356 13.4128 25.7356C13.4128 25.7577 13.4128 25.7577 13.4349 25.7799C13.4349 25.8242 13.4571 25.8463 13.4571 25.8906C13.4571 25.9349 13.4793 25.9349 13.4793 25.957C13.4793 25.9792 13.4793 26.0013 13.4793 26.0013C13.4793 26.0456 13.4793 26.0678 13.4793 26.0899V26.1342C13.4793 26.1785 13.4793 26.2007 13.4793 26.245C13.4793 26.2671 13.4793 26.2671 13.4793 26.2893C13.4793 26.3114 13.4793 26.3336 13.4793 26.3336C13.4793 26.3557 13.4793 26.3557 13.4793 26.3779V26.4C13.4793 26.4443 13.4571 26.4664 13.4349 26.5107C13.4128 26.555 13.3906 26.5772 13.3684 26.6215C13.2132 26.9537 12.792 27.1309 12.3043 27.1087Z" fill="#41E6AF"/>
<path d="M13.9227 25.4919C13.9227 25.4476 13.9005 25.4255 13.8783 25.3812C13.8783 25.3591 13.8783 25.3591 13.8562 25.3369C13.834 25.2705 13.8118 25.2262 13.7675 25.1597C13.5236 24.6946 13.1246 24.2517 12.6368 23.8973C12.5703 23.853 12.5038 23.8087 12.4373 23.7644C12.3708 23.7201 12.3043 23.6758 12.2378 23.6537H12.2156C12.1934 23.6315 12.1713 23.6315 12.1491 23.6094C12.1047 23.5872 12.0826 23.5651 12.0382 23.543H12.0161C11.9939 23.543 11.9717 23.5208 11.9496 23.5208C11.9052 23.4987 11.8609 23.4765 11.8165 23.4765L11.7722 23.4544C11.7722 23.4544 11.7722 23.4544 11.75 23.4544C11.7279 23.4544 11.7057 23.4322 11.6835 23.4322C11.6392 23.4101 11.5948 23.4101 11.5505 23.3879L11.5062 23.3658H11.484C11.4396 23.3436 11.3953 23.3436 11.351 23.3215C11.3288 23.3215 11.3066 23.2993 11.2623 23.2993H11.2401C11.1958 23.2993 11.1514 23.2772 11.1293 23.2772C11.1071 23.2772 11.0628 23.2772 11.0406 23.255H11.0184C10.9963 23.255 10.9741 23.255 10.9519 23.2329C10.9297 23.2329 10.9076 23.2329 10.8854 23.2329C10.8189 23.2329 10.7302 23.2107 10.6637 23.2107H10.6415C10.575 23.2107 10.5085 23.2107 10.442 23.2107C10.4198 23.2107 10.3977 23.2107 10.3977 23.2107H10.3755C10.3312 23.2107 10.2868 23.2107 10.2425 23.2329C10.2203 23.2329 10.1981 23.2329 10.176 23.255C10.1316 23.255 10.0873 23.2772 10.0429 23.2772C10.0208 23.2772 9.99861 23.2993 9.97644 23.2993L11.1958 21.3282L13.8118 21.3503L15.1642 23.7423L13.9448 25.7356C13.9448 25.7134 13.9448 25.6913 13.9227 25.6691C13.9227 25.647 13.9227 25.647 13.9227 25.6248C13.9227 25.6027 13.9005 25.5805 13.9005 25.5362C13.9227 25.5141 13.9227 25.4919 13.9227 25.4919Z" fill="#41E6AF"/>
<path d="M18.5562 28.2825L12.1713 28.2604L11.1958 30.0986L10.5307 31.3611L12.2378 31.3389V31.3611L21.9925 31.3832L22.968 29.7L15.9401 17.6738L1.99531 17.6517L1.10852 19.202L1.28588 19.4899H1.26371L6.80616 29.2349L8.64626 26.245L5.40946 20.7523H14.1665L18.5562 28.2825Z" fill="#41E6AF"/>
<path d="M61.9646 16.6108C61.9646 15.747 61.9647 15.0161 62.009 14.4403C62.0312 13.8644 62.0755 13.3993 62.142 13.0228C62.408 11.4504 63.6052 10.5423 65.1349 10.5423C66.1326 10.5423 67.0415 10.9188 67.6179 11.7604C67.8618 12.1369 68.0613 12.5577 68.1722 13.045C68.1944 13.0893 68.2165 13.1114 68.283 13.1114H71.7194C71.7637 13.1114 71.7859 13.0671 71.7859 13.0228C71.409 10.8967 70.2783 8.96981 68.2609 8.03961C67.3297 7.59666 66.2878 7.37518 65.1128 7.37518C63.1618 7.37518 61.5434 8.03961 60.2132 9.36847C59.4595 10.1215 58.9496 11.0517 58.7279 12.0926C58.5283 13.1114 58.4175 14.6175 58.4175 16.6108C58.4175 18.604 58.5283 20.1101 58.7279 21.1289C58.9274 22.192 59.4595 23.1 60.2132 23.853C61.5434 25.1819 63.184 25.8463 65.1128 25.8463C66.2878 25.8463 67.3297 25.6249 68.2609 25.1819C70.2783 24.2295 71.409 22.3249 71.7859 20.1987C71.7859 20.1544 71.7859 20.1101 71.7194 20.1101H68.283C68.2165 20.1101 68.1944 20.1322 68.1722 20.1765C68.0392 20.6638 67.8618 21.0846 67.6179 21.4611C67.0415 22.3027 66.1326 22.6792 65.1349 22.6792C63.6052 22.6792 62.408 21.749 62.142 20.1987C62.0755 19.8443 62.0312 19.3571 62.009 18.7812C61.9647 18.2054 61.9646 17.4745 61.9646 16.6108Z" fill="#41E6AF"/>
<path d="M79.9666 16.6108C79.9666 15.747 79.9666 15.0161 80.0109 14.4403C80.0331 13.8644 80.0774 13.3993 80.144 13.0228C80.41 11.4504 81.6072 10.5423 83.1369 10.5423C84.1345 10.5423 85.0435 10.9188 85.6199 11.7604C85.8638 12.1369 86.0633 12.5577 86.1742 13.045C86.1963 13.0893 86.2185 13.1114 86.285 13.1114H89.7213C89.7657 13.1114 89.7878 13.0671 89.7878 13.0228C89.4109 10.8967 88.2803 8.96981 86.2628 8.03961C85.3317 7.59666 84.2897 7.37518 83.1147 7.37518C81.1638 7.37518 79.5454 8.03961 78.2152 9.36847C77.4614 10.1215 76.9515 11.0517 76.7298 12.0926C76.5303 13.1114 76.4194 14.6175 76.4194 16.6108C76.4194 18.604 76.5303 20.1101 76.7298 21.1289C76.9293 22.192 77.4614 23.1 78.2152 23.853C79.5454 25.1819 81.1859 25.8463 83.1147 25.8463C84.2897 25.8463 85.3317 25.6249 86.2628 25.1819C88.2803 24.2295 89.4109 22.3249 89.7878 20.1987C89.7878 20.1544 89.7878 20.1101 89.7213 20.1101H86.285C86.2185 20.1101 86.1963 20.1322 86.1742 20.1765C86.0411 20.6638 85.8638 21.0846 85.6199 21.4611C85.0435 22.3027 84.1345 22.6792 83.1369 22.6792C81.6072 22.6792 80.41 21.749 80.144 20.1987C80.0774 19.8443 80.0331 19.3571 80.0109 18.7812C79.9888 18.2054 79.9666 17.4745 79.9666 16.6108Z" fill="#41E6AF"/>
<path d="M43.342 7.84028C43.342 7.6631 43.209 7.53021 43.0316 7.53021H40.1052C39.9278 7.53021 39.7948 7.6631 39.7948 7.84028V25.3812C39.7948 25.5584 39.9278 25.6913 40.1052 25.6913H43.0316C43.209 25.6913 43.342 25.5584 43.342 25.3812V20.243L45.692 17.4302L50.525 25.6027C50.5693 25.6691 50.6137 25.6913 50.7024 25.6913H54.2495C54.4047 25.6913 54.449 25.5805 54.3604 25.4477L48.042 14.7503L53.8283 7.81813C53.9391 7.68525 53.8948 7.55236 53.7174 7.55236H49.8377C49.7712 7.55236 49.749 7.57451 49.7269 7.6188L43.3641 15.2597V7.84028H43.342Z" fill="#41E6AF"/>
</svg>
